<svg xmlns="http://www.w3.org/2000/svg" viewBox="0 0 209.3 192.14"><defs><style>.cls-1{fill:#e24159;}.cls-2{fill:#ea5774;}.cls-3{fill:none;}</style></defs><g id="Ebene_2" data-name="Ebene 2"><g id="Ebene_2-2" data-name="Ebene 2"><rect class="cls-1" x="182.14" y="127.75" width="11.86" height="3" transform="translate(57.72 316.55) rotate(-89.66)"/><circle class="cls-1" cx="46.93" cy="121.26" r="5.61"/><path class="cls-2" d="M137,40.08a1.53,1.53,0,0,1-.75-.2l-21.13-12.2a1.51,1.51,0,0,1-.75-1.3,1.47,1.47,0,0,1,.75-1.29l21-12.2a1.51,1.51,0,0,1,1.51,0l21.13,12.2a1.49,1.49,0,0,1,.75,1.29,1.51,1.51,0,0,1-.75,1.3l-21,12.2A1.53,1.53,0,0,1,137,40.08Zm-18.14-13.7L137,36.85l18-10.46L136.88,15.92Z"/><path class="cls-2" d="M137,61.66a1.53,1.53,0,0,1-.75-.2,1.5,1.5,0,0,1-.75-1.3V38.5a1.48,1.48,0,0,1,.75-1.3l21-12.11a1.5,1.5,0,0,1,2.25,1.29V48a1.5,1.5,0,0,1-.75,1.3l-21,12.12A1.53,1.53,0,0,1,137,61.66Zm1.5-22.3v18.2l18-10.38V29Z"/><path class="cls-2" d="M137,61.66a1.53,1.53,0,0,1-.75-.2L115.15,49.34a1.48,1.48,0,0,1-.76-1.3V26.38a1.52,1.52,0,0,1,.75-1.3,1.54,1.54,0,0,1,1.5,0l21.12,12.11a1.51,1.51,0,0,1,.76,1.31V60.16a1.49,1.49,0,0,1-.75,1.29A1.44,1.44,0,0,1,137,61.66ZM117.39,47.17l18.13,10.4V39.37L117.39,29Z"/><polygon class="cls-3" points="77.18 40.54 7.62 40.54 42.4 58.68 77.18 40.54"/><polygon class="cls-3" points="81.8 41.51 42.4 62.06 3 41.51 3 80.21 81.8 80.21 81.8 41.51"/><polygon class="cls-3" points="186.47 189.14 186.47 144.4 172.41 144.4 172.41 174.8 62.98 174.8 62.98 189.14 186.47 189.14"/><rect class="cls-3" x="172.41" y="24.04" width="14.06" height="89.61"/><polygon class="cls-3" points="154.24 138.9 155.44 139.65 158.1 141.4 206.3 141.4 206.3 136.4 158.1 136.4 154.24 138.9"/><polygon class="cls-3" points="153.8 142.16 148.56 138.9 153.82 135.63 157.21 133.4 169.47 133.4 169.42 124.64 157.21 124.64 153.8 122.41 148.56 119.14 153.82 115.87 157.21 113.64 169.41 113.64 169.41 3 40.1 3 40.1 37.54 84.8 37.54 84.8 83.21 40.1 83.21 40.1 102.39 62.86 102.39 62.86 140.13 40.1 140.13 40.1 171.8 169.41 171.8 169.41 144.4 157.21 144.4 153.8 142.16"/><polygon class="cls-3" points="154.24 119.14 155.44 119.89 158.1 121.64 206.3 121.64 206.3 116.64 158.1 116.64 154.24 119.14"/><path class="cls-3" d="M59.86,105.39H3v31.74H59.86Zm-30,21.37H8.45v-3H29.83Zm0-9.61H8.45v-3H29.83Z"/><path class="cls-1" d="M186.47,189.14H63V174.8H60v15.84a1.5,1.5,0,0,0,1.5,1.5H188a1.5,1.5,0,0,0,1.5-1.5V144.4h-3Z"/><path class="cls-1" d="M186.47,24v89.6h3V22.54A1.5,1.5,0,0,0,188,21H172.41v3Z"/><rect x="8.45" y="114.15" width="21.38" height="3"/><rect x="8.45" y="123.76" width="21.38" height="3"/><path d="M209.3,113.64H172.41V0H37.1V37.54H0V83.21H37.1v19.18H0v37.74H37.1V174.8H172.41V144.4H209.3v-11H172.47l-.05-8.76H209.3ZM77.18,40.54,42.4,58.68,7.62,40.54ZM3,80.21V41.51L42.4,62.06,81.8,41.51v38.7Zm0,56.92V105.39H59.86v31.74ZM169.41,171.8H40.1V140.13H62.86V102.39H40.1V83.21H84.8V37.54H40.1V3H169.41V113.64h-12.2l-3.39,2.23-5.25,3.27,5.23,3.27,3.41,2.23h12.21l.05,8.76H157.21l-3.39,2.23-5.25,3.27,5.23,3.27,3.41,2.23h12.2Zm36.89-35.4v5H158.1l-2.66-1.75-1.2-.75,3.86-2.5Zm0-14.76H158.1l-2.66-1.75-1.2-.75,3.86-2.5h48.2Z"/></g></g></svg>