<svg xmlns="http://www.w3.org/2000/svg" viewBox="0 0 173.35 194.85"><defs><style>.cls-1{fill:none;}.cls-2{fill:#e24159;}.cls-3{fill:#ea5774;}</style></defs><g id="Ebene_2" data-name="Ebene 2"><g id="Ebene_2-2" data-name="Ebene 2"><polygon class="cls-1" points="154 50.28 154 86.77 169.8 59.41 154 50.28"/><path class="cls-1" d="M21.12,182.23a9.63,9.63,0,0,0,9.62,9.62H151V172.62H30.74A9.63,9.63,0,0,0,21.12,182.23Z"/><polygon class="cls-1" points="64.01 19.22 100.2 19.22 73.06 3.55 64.01 19.22"/><polygon class="cls-1" points="18.12 132.35 18.12 98.7 3.55 123.94 18.12 132.35"/><path class="cls-1" d="M151,22.22H30.74a9.64,9.64,0,0,0-9.62,9.62V174.09a12.6,12.6,0,0,1,9.62-4.47H98.88a1.42,1.42,0,0,1,.36-.05,12.91,12.91,0,0,0,2.63-.29,5.41,5.41,0,0,0,2.86-2.41c1.87-3,1.76-7.82.42-10.07-2.29-3.84-6.74-5.87-12.86-5.87a20.07,20.07,0,0,0-3.35.46,1.5,1.5,0,0,1-.8-2.88c16-5.41,62.2-27,62.86-45.38V22.22Z"/><path class="cls-1" d="M109,169.62h42V116.31c-3.31,8.81-9.16,19.18-16.7,29.2C125.6,157.09,116.72,165.46,109,169.62Z"/><path class="cls-1" d="M147.57,116.91c-11.65,13.5-36.32,25.55-50.57,31.42,6,1.1,9.11,4.23,10.73,6.93s2,7.58.4,11.52C122.44,158.77,140.21,135.12,147.57,116.91Z"/><path class="cls-2" d="M169.8,59.41,154,86.77v6l19.15-33.16a1.5,1.5,0,0,0-.55-2L154,46.82v3.46Z"/><path class="cls-2" d="M73.06,3.55,100.2,19.22h6L73.26.2a1.5,1.5,0,0,0-2.05.55L60.55,19.22H64Z"/><path class="cls-2" d="M3.55,123.94,18.12,98.7v-6L.2,123.74a1.5,1.5,0,0,0,.55,2.05l17.37,10v-3.47Z"/><path d="M154,86.77v-66a1.5,1.5,0,0,0-1.5-1.5H30.74A12.63,12.63,0,0,0,18.12,31.84V182.23a12.63,12.63,0,0,0,12.62,12.62H154V103.08c0-.11,0-.23,0-.34h0a.88.88,0,0,0,0-.16V86.77Zm-3,105.08H30.74a9.62,9.62,0,1,1,0-19.23H151Zm-43.27-36.59c-1.62-2.7-4.74-5.83-10.73-6.93,14.25-5.87,38.92-17.92,50.57-31.42-7.36,18.21-25.13,41.86-39.44,49.87C109.72,162.84,109.32,157.93,107.73,155.26ZM151,169.62H109c7.69-4.16,16.57-12.53,25.27-24.11,7.54-10,13.39-20.39,16.7-29.2Zm0-66.49c-.66,18.41-46.86,40-62.86,45.38a1.5,1.5,0,0,0,.8,2.88,20.07,20.07,0,0,1,3.35-.46c6.12,0,10.57,2,12.86,5.87,1.34,2.25,1.45,7-.42,10.07a5.41,5.41,0,0,1-2.86,2.41,12.91,12.91,0,0,1-2.63.29,1.42,1.42,0,0,0-.36.05H30.74a12.6,12.6,0,0,0-9.62,4.47V31.84a9.64,9.64,0,0,1,9.62-9.62H151v80.91Z"/><path class="cls-3" d="M86.17,88.66a1.53,1.53,0,0,1-.75-.2L53.64,70.11a1.49,1.49,0,0,1-.75-1.3,1.51,1.51,0,0,1,.74-1.3L85.2,49.17a1.51,1.51,0,0,1,1.51,0l31.78,18.35a1.49,1.49,0,0,1,0,2.59L86.92,88.46A1.53,1.53,0,0,1,86.17,88.66ZM57.38,68.81,86.16,85.43l28.58-16.61L86,52.2Z"/><path class="cls-3" d="M86.17,113.53a1.53,1.53,0,0,1-.75-.2,1.49,1.49,0,0,1-.75-1.3V87h3v22.4L116.24,93V68.81h3v25a1.5,1.5,0,0,1-.75,1.3L86.92,113.33A1.59,1.59,0,0,1,86.17,113.53Z"/><path class="cls-3" d="M85.42,113.33,53.64,95.11a1.48,1.48,0,0,1-.75-1.3v-25h3V92.94l31,17.79Z"/></g></g></svg>