<svg xmlns="http://www.w3.org/2000/svg" viewBox="0 0 207.07 164.37"><defs><style>.cls-1{fill:#e24159;}</style></defs><g id="Ebene_2" data-name="Ebene 2"><g id="Ebene_2-2" data-name="Ebene 2"><path class="cls-1" d="M1.5,95.39a1.53,1.53,0,0,1-1.18-.57,1.51,1.51,0,0,1,.25-2.11A119.38,119.38,0,0,1,74.71,67H75c20.38,0,34.24,4.83,34.82,5a1.5,1.5,0,1,1-1,2.83c-.56-.2-56.29-19.24-106.43,20.2A1.48,1.48,0,0,1,1.5,95.39Z"/><path d="M207.07,71.89l-19.71-3V30.44a9.48,9.48,0,0,0-.1-1.3l15.4-10.89L201,15.77,176.12,33.35a1.51,1.51,0,0,0-.62,1l-2,15.14L124.47,62,149.23,44.5a8.55,8.55,0,1,0-1.74-2.44L122.74,59.57l28.11-42,14.64,3a1.54,1.54,0,0,0,1.18-.25l25.2-17.83L190.18,0,165.46,17.49l-15-3.12a1.5,1.5,0,0,0-1.55.64L144,22.41H23.85c-3.88,0-7,3.6-7,8V76.8q1.51-.8,3-1.53V30.44c0-2.77,1.82-5,4.05-5H142L115.74,64.65a1.49,1.49,0,0,0,0,1.7A1.52,1.52,0,0,0,117,67a1.61,1.61,0,0,0,.37,0l57.85-14.77a1.51,1.51,0,0,0,1.11-1.26l2.07-15.49,6-4.23V68.43L161.6,65l-.25,0-47.41,8.58L156.42,95.7l.23.12.36.05a1.38,1.38,0,0,0,.62.15l.2,0,26.53,4v21.89H149.61L138.9,99.24a1.48,1.48,0,0,0-.41-.52L116.32,80.5a1.5,1.5,0,0,0-1.6-.19,1.48,1.48,0,0,0-.85,1.35l0,28.7a1.57,1.57,0,0,0,.14.64l5.16,10.93H19.8V88.85q-1.5.84-3,1.74v32.84c0,8.14,5.73,14.77,12.77,14.77H90.64v20.63h-13v3h48.81v-3H113V138.2h13.82l12.36,26.17,2.48-1.77L118,112.53a29.35,29.35,0,0,0,19.37-9.42L159.53,150l2.48-1.77-4.71-10h17.3c7,0,12.76-6.63,12.76-14.77V100.5L205,103.18l.2-3L160,93.3a41.2,41.2,0,0,0,3.72-10.65l42.2,6.42.2-3L164.2,79.68a40.72,40.72,0,0,0-.11-11.3l42.78,6.51Zm-55-38a5.53,5.53,0,0,1,3.21-1,5.58,5.58,0,1,1-3.21,1Zm-42,125H93.64V138.2H110ZM29.57,135.2c-5,0-9.07-4.48-9.69-10.27H120.57l4.85,10.27ZM127,107.1a26.59,26.59,0,0,1-10.18,2.51V84.83l19,15.57A26.57,26.57,0,0,1,127,107.1Zm47.57,28.1H155.88L151,124.93h33.25C183.67,130.72,179.56,135.2,174.6,135.2Zm-13.5-55A38,38,0,0,1,157,92.61L133.27,80.22a19.17,19.17,0,0,0,1.12-7.36L161,68A37.82,37.82,0,0,1,161.1,80.24ZM131.4,73.4a15.77,15.77,0,0,1-.18,2.74,16.1,16.1,0,0,1-.64,2.68l-7.49-3.92Z"/></g></g></svg>