<svg xmlns="http://www.w3.org/2000/svg" viewBox="0 0 188.08 240.29"><defs><style>.cls-1{fill:#eaf1f8;}</style></defs><g id="Ebene_2" data-name="Ebene 2"><g id="Ebene_8" data-name="Ebene 8"><path class="cls-1" d="M186,143c-3.94-16.83-14.84-28.84-28.76-38.17-12.44-8.33-25.36-15.94-37.92-24.09-7.61-4.93-14.26-11-18.7-19.08-12-21.8-1-47,22.55-51.28a54.62,54.62,0,0,1,16.88.13c13.63,1.91,25.59,8,36.58,16.52l2.74-3.55c-1-.6-5.76-4.24-7.39-5.38C150.72,3.23,128-2.55,101.44,1,69.93,5,49.37,28.82,49.36,58.36A67.83,67.83,0,0,0,50.9,72.59c3.76,17.47,14.67,29.59,28.89,39.13,9.8,6.57,20.3,12.12,30,18.81,7.62,5.26,15.42,10.76,21.53,17.59,11.22,12.54,12.86,27.67,6.44,43-6.29,15-19.07,21.3-34.66,21.9-.74,0-1.46,0-2.19,0-16.72-.12-48.07-13.36-48.07-47.18l0-65.1H47c-5,13.06-26.63,30.86-47,30.86v5.84H19.43c0,1.9-.41,60.62.14,68,1,13.59,7.52,24.14,20,29.74,18.84,8.42,35.94,6.11,52.77-5.45C91.88,229,90,226.13,90,226c-27.55,18.62-46.76-.37-40.79-10.17,4.93-8.09,14.34-6.7,18.23-4.74.75.37,1.47.8,2.21,1.18,20.51,10.53,43.11,13.29,67.42,8.12C180.73,211.09,193.63,175.48,186,143Z"/></g></g></svg>