<svg xmlns="http://www.w3.org/2000/svg" viewBox="0 0 170.56 200.57"><defs><style>.cls-1{fill:#ea5774;}</style></defs><g id="Ebene_2" data-name="Ebene 2"><g id="Ebene_2-2" data-name="Ebene 2"><polygon class="cls-1" points="85.45 133.56 29.07 101 49.04 89.4 50.54 91.99 35.06 100.99 85.45 130.09 135.5 101 119.65 91.85 121.15 89.25 141.49 100.99 85.45 133.56"/><polygon class="cls-1" points="85.45 112.89 29.07 80.33 48.86 68.83 50.37 71.43 35.06 80.33 85.45 109.42 135.5 80.34 119.75 71.24 121.25 68.65 141.49 80.33 85.45 112.89"/><path class="cls-1" d="M85.46,92.23,29.07,59.67l56-32.56,56.39,32.56ZM35.06,59.66l50.39,29.1L135.5,59.67,85.1,30.58Z"/><rect class="cls-1" x="111.32" y="7.84" width="17.79" height="3"/><rect class="cls-1" x="136.68" y="7.84" width="17.79" height="3"/><path d="M163.51,61.14h-1.39V1.5a1.5,1.5,0,0,0-1.5-1.5H9.94a1.5,1.5,0,0,0-1.5,1.5V61.14H7.05c-3.89,0-7,3.61-7,8v93c0,8.14,5.73,14.77,12.76,14.77H73.84v20.63H61.19v3H110v-3H96.21V176.94H157.8c7,0,12.76-6.63,12.76-14.77v-93C170.56,64.75,167.4,61.14,163.51,61.14ZM11.44,18.72H159.12V147.58H11.44ZM159.12,3V15.72H11.44V3ZM3,69.18c0-2.78,1.82-5,4.05-5H8.44v84.94a1.5,1.5,0,0,0,1.5,1.5H160.62a1.5,1.5,0,0,0,1.5-1.5V64.14h1.39c2.23,0,4.05,2.26,4.05,5v91.49H3ZM93.21,197.57H76.84V176.94H93.21Zm64.59-23.63h-145c-5,0-9.07-4.49-9.68-10.27h164.4C166.87,169.45,162.76,173.94,157.8,173.94Z"/></g></g></svg>